<?xml version="1.0" encoding="utf-8"?>
<!-- Generator: Adobe Illustrator 22.0.1, SVG Export Plug-In . SVG Version: 6.00 Build 0)  -->
<svg version="1.1" xmlns="http://www.w3.org/2000/svg" xmlns:xlink="http://www.w3.org/1999/xlink" x="0px" y="0px"
	 viewBox="0 0 512 512" style="enable-background:new 0 0 512 512;" xml:space="preserve">
<style type="text/css">
	.st0{fill:#4B71B4;}
	.st1{fill:#80B4E8;}
	.st2{fill:#594144;}
	.st3{fill:#B8E876;}
	.st4{fill:#E09122;}
	.st5{fill:#FBF355;}
	.st6{fill:#EEC82F;}
	.st7{fill:#CEA628;}
	.st8{fill:#9BC9EF;}
	.st9{fill:#9DD055;}
	.st10{fill:#5686C5;}
	.st11{fill:#3B5880;}
	.st12{fill:#C2E5FB;}
	.st13{fill:#446697;}
	.st14{fill:#D1F1A0;}
	.st15{fill:#ABD170;}
	.st16{fill:#9DBD6A;}
	.st17{fill:#649D53;}
	.st18{fill:#72B35D;}
	.st19{fill:#ABD68D;}
	.st20{fill:#7FB358;}
	.st21{fill:#920C50;}
	.st22{fill:#C60053;}
	.st23{fill:#530730;}
	.st24{fill:#600332;}
	.st25{fill:#D5AC2A;}
	.st26{fill:#EFD776;}
	.st27{fill:#A7C76D;}
	.st28{fill:#A43749;}
	.st29{fill:#DC4355;}
	.st30{fill:#E18696;}
	.st31{fill:#77A255;}
	.st32{fill:#628547;}
	.st33{fill:#6E994D;}
	.st34{fill:none;stroke:#54743C;stroke-width:8;stroke-linecap:round;stroke-miterlimit:10;}
	.st35{fill:#9BCF75;}
	.st36{fill:#CA8F80;}
	.st37{fill:#E6B8AB;}
	.st38{fill:#E2A18B;}
	.st39{fill:#8E3F2B;}
	.st40{fill:#D89988;}
	.st41{fill:#CFCFCF;}
	.st42{fill:#A64B2D;}
	.st43{fill:#FFFFFF;}
	.st44{fill:#CA801F;}
	.st45{fill:#719C50;}
	.st46{fill:#85B7E5;}
	.st47{fill:#4F7BA9;}
	.st48{fill:#674C50;}
	.st49{fill:#BAD7ED;}
	.st50{fill:#63494D;}
	.st51{fill:#503D3F;}
	.st52{fill:#638547;}
	.st53{fill:#56713E;}
	.st54{fill:#BB5135;}
	.st55{fill:#93C4EC;}
	.st56{fill:#CA8121;}
	.st57{fill:#FDFCFC;}
	.st58{fill:#A83A4F;}
	.st59{fill:#BD5E44;}
	.st60{fill:#688C4A;}
	.st61{fill:#7DA55A;}
	.st62{fill:#90BA51;}
	.st63{fill:none;}
	.st64{fill:#ABC287;}
	.st65{fill:#BDD993;}
	.st66{fill:none;stroke:#534046;stroke-width:15;stroke-linecap:round;stroke-linejoin:round;stroke-miterlimit:10;}
	.st67{fill:#413133;}
	.st68{fill:#34292B;}
	.st69{fill:#644B50;}
	.st70{fill:#CDACB7;}
	.st71{fill:#A83A4D;}
	.st72{fill:#413335;}
	.st73{fill:#DC6579;}
	.st74{fill:#4C393C;}
	.st75{fill:#527FAE;}
	.st76{fill:#92C2EA;}
	.st77{fill:#5B8C4A;}
	.st78{fill:#729C51;}
	.st79{fill:#AADB5E;}
	.st80{fill:#D66C53;}
	.st81{fill:#A65340;}
	.st82{fill:#B8594A;}
	.st83{fill:#79A754;}
	.st84{fill:#4E3B3E;}
	.st85{fill:#5E4649;}
	.st86{fill:#604A50;}
	.st87{fill:#685258;}
	.st88{fill:#765E66;}
	.st89{fill:#FCF69A;}
	.st90{fill:#D3CC84;}
	.st91{fill:#E6A572;}
	.st92{fill:#74A151;}
	.st93{fill:#6F994F;}
	.st94{fill:#CC6D7D;}
	.st95{fill:#AD6576;}
	.st96{fill:#95422D;}
	.st97{fill:#BE6850;}
	.st98{fill:#3B2F32;}
	.st99{fill:none;stroke:#46383B;stroke-width:15;stroke-linecap:round;stroke-miterlimit:10;}
	.st100{fill:none;stroke:#3B2F32;stroke-width:15;stroke-linecap:round;stroke-miterlimit:10;}
	.st101{fill:#D6CF77;}
	.st102{fill:#F5EF82;}
	.st103{fill:#4A383B;}
	.st104{fill:#CACACA;}
	.st105{fill:#48373A;}
	.st106{fill:#7AA8D2;}
	.st107{fill:#6E9150;}
	.st108{fill:#587441;}
	.st109{fill:#D76E51;}
	.st110{fill:#CCC475;}
	.st111{fill:#DDD57E;}
	.st112{fill:#F8F19C;}
	.st113{fill:#FBF58A;}
	.st114{fill:#C67F20;}
	.st115{fill:#AB6B1C;}
	.st116{fill:#C98020;}
	.st117{fill:#D99A41;}
	.st118{fill:#DBA35B;}
	.st119{fill:#9B5F1B;}
	.st120{fill:#97CF6D;}
	.st121{fill:#5380B1;}
	.st122{fill:#96D16A;}
	.st123{fill:#92BD50;}
	.st124{fill:#7EB058;}
	.st125{fill:#709A50;}
	.st126{fill:#5A8A4A;}
	.st127{fill:#D9D9D9;}
	.st128{fill:#75A3CD;}
	.st129{fill:#6E974F;}
	.st130{fill:#CA6D7D;}
	.st131{fill:#AB6576;}
	.st132{fill:#93422D;}
	.st133{fill:#A44B2D;}
	.st134{fill:#BC6850;}
	.st135{fill:#DFB52B;}
	.st136{fill:#4C3A3C;}
	.st137{fill:#473538;}
	.st138{fill:#382B2E;}
	.st139{fill:none;stroke:#FFFFFF;stroke-width:8;stroke-linecap:round;stroke-miterlimit:10;}
	.st140{fill:#90C0E8;}
	.st141{fill:none;stroke:#E09122;stroke-width:12;stroke-linecap:round;stroke-miterlimit:10;}
	.st142{fill:#DCAE2B;}
	.st143{fill:#F0D05A;}
	.st144{fill:#729E51;}
	.st145{fill:#E4BA36;}
	.st146{fill:#F8F283;}
	.st147{fill:#E4B6A9;}
	.st148{fill:#D78E30;}
	.st149{fill:#598A49;}
	.st150{fill:#B65339;}
	.st151{fill:#BA751F;}
	.st152{fill:#466A9F;}
	.st153{fill:#8BB34D;}
	.st154{fill:#9BCE54;}
	.st155{fill:#7F9F49;}
	.st156{fill:#D37F6D;}
	.st157{fill:#BB5E44;}
	.st158{fill:#93BB55;}
	.st159{fill:#B3E665;}
	.st160{fill:none;stroke:#4C393C;stroke-width:8;stroke-miterlimit:10;}
	.st161{fill:#97432D;}
	.st162{fill:#DAB12A;}
	.st163{fill:#5E914C;}
	.st164{fill:#5381B3;}
	.st165{fill:#6A8F4C;}
	.st166{fill:#628047;}
	.st167{fill:#E29D37;}
	.st168{fill:#6E555B;}
	.st169{fill:#91CA67;}
	.st170{fill:#476BA1;}
	.st171{fill:#6699D9;}
	.st172{fill:#503C3E;}
	.st173{fill:#413235;}
	.st174{fill:#CC916A;}
	.st175{fill:#BA8363;}
	.st176{fill:#D09571;}
	.st177{fill:#C98F68;}
	.st178{fill:#AA3B4D;}
	.st179{fill:#DA6075;}
	.st180{fill:#92452D;}
	.st181{fill:#A24B2D;}
	.st182{fill:#B76252;}
	.st183{fill:#87BD60;}
	.st184{fill:#78A7D2;}
	.st185{fill:#F9F38F;}
	.st186{fill:#E0D650;}
	.st187{fill:#AFE086;}
	.st188{fill:#9FD476;}
	.st189{fill:#9DD176;}
	.st190{fill:#8FC468;}
	.st191{fill:#7EAE58;}
	.st192{fill:#6F9850;}
	.st193{fill:#59884A;}
	.st194{fill:#638347;}
	.st195{fill:#B95135;}
	.st196{fill:#E5AB62;}
	.st197{fill:#733228;}
	.st198{fill:#803728;}
	.st199{fill:#6D974D;}
	.st200{fill:#99CD75;}
	.st201{fill:#93412C;}
	.st202{fill:#93C2EA;}
	.st203{fill:#CD926B;}
	.st204{fill:#E6AF8A;}
	.st205{fill:#E5DB4E;}
	.st206{fill:#FBF375;}
	.st207{fill:#779E54;}
	.st208{fill:#D3966D;}
	.st209{fill:#DA4355;}
	.st210{fill:#A83B4D;}
	.st211{fill:none;stroke:#594144;stroke-width:8;stroke-linecap:round;stroke-miterlimit:10;}
	.st212{fill:#E5A855;}
	.st213{fill:#EAC291;}
	.st214{fill:#96C252;}
	.st215{fill:#695055;}
	.st216{fill:#DC9C42;}
	.st217{fill:#8E5C1B;}
	.st218{fill:#F4EB6A;}
	.st219{fill:#CBC049;}
	.st220{fill:none;stroke:#B8E876;stroke-width:15;stroke-linecap:round;stroke-miterlimit:10;}
	.st221{fill:#A36A1C;}
	.st222{fill:#ECC94A;}
	.st223{fill:#91BEDA;}
	.st224{fill:#3D2F32;}
	.st225{fill:#A6394C;}
	.st226{fill:#33292B;}
	.st227{fill:#4F3D42;}
	.st228{fill:#638147;}
	.st229{fill:#CD8321;}
	.st230{fill:#D3CA4A;}
	.st231{fill:#E2A550;}
	.st232{fill:#B75135;}
	.st233{fill:#D4CD77;}
	.st234{fill:#F3EC80;}
	.st235{fill:#46383B;}
	.st236{fill:#82AA61;}
	.st237{fill:#8EBF69;}
	.st238{fill:#3C2E31;}
	.st239{fill:#C49F27;}
	.st240{fill:#D2BF7C;}
	.st241{fill:#F6E18D;}
	.st242{fill:#D6D6D6;}
	.st243{fill:#B5D7F2;}
	.st244{fill:#F1D467;}
	.st245{fill:#739FBD;}
	.st246{fill:#D0946C;}
	.st247{fill:#BE8767;}
	.st248{fill:#D0A829;}
	.st249{fill:#F6DF86;}
	.st250{fill:#EABA8D;}
	.st251{fill:#F0D1B8;}
	.st252{fill:#A5D0F1;}
	.st253{fill:#E3A13F;}
	.st254{fill:#F0FAFF;}
	.st255{fill:#B4D3E3;}
	.st256{fill:#80A5C3;}
	.st257{fill:#87AFD5;}
	.st258{fill:#B1D1E7;}
	.st259{fill:#AED66F;}
	.st260{fill:#91AA61;}
	.st261{fill:#A8384B;}
	.st262{fill:#CD8120;}
	.st263{fill:#E6AD56;}
	.st264{fill:none;stroke:#E6AD56;stroke-width:8;stroke-linecap:round;stroke-miterlimit:10;}
	.st265{fill:#9EBD68;}
	.st266{fill:#AAD16E;}
	.st267{fill:#86656B;}
	.st268{fill:#6D954D;}
	.st269{fill:#98CB75;}
	.st270{fill:#75A251;}
	.st271{fill:#91BD4F;}
	.st272{fill:none;stroke:#B8E078;stroke-width:8;stroke-linecap:round;stroke-miterlimit:10;}
	.st273{fill:none;stroke:#B8E078;stroke-width:8;stroke-linecap:round;stroke-linejoin:round;stroke-miterlimit:10;}
	.st274{fill:#8FBA4E;}
	.st275{fill:#B3E860;}
	.st276{fill:#E7A748;}
	.st277{fill:none;stroke:#B6E676;stroke-width:15;stroke-linecap:round;stroke-miterlimit:10;}
	.st278{fill:#639B53;}
	.st279{fill:#476B9F;}
	.st280{fill:#82B1DE;}
	.st281{fill:#A6533F;}
	.st282{fill:#C28A69;}
	.st283{fill:#64494E;}
	.st284{fill:#77565C;}
	.st285{fill:#4F3C40;}
	.st286{fill:#ECCCB1;}
	.st287{fill:#BF6F5C;}
	.st288{fill:none;stroke:#D4F1A7;stroke-width:10;stroke-linecap:round;stroke-miterlimit:10;}
	.st289{fill:none;stroke:#B8E876;stroke-width:10;stroke-linecap:round;stroke-miterlimit:10;}
	.st290{fill:#47688F;}
	.st291{fill:#3F5B78;}
	.st292{fill:#354E6C;}
	.st293{fill:#DAB12B;}
	.st294{fill:#C8A028;}
	.st295{fill:#F0D15C;}
	.st296{fill:#F8F28B;}
	.st297{fill:#F7F18D;}
	.st298{fill:#DED450;}
	.st299{fill:#F9F155;}
	.st300{fill:#A2CFF4;}
	.st301{fill:none;stroke:#594144;stroke-width:10;stroke-linecap:round;stroke-miterlimit:10;}
	.st302{fill:#F5F0AB;}
	.st303{fill:#496DA1;}
	.st304{fill:#5A85C7;}
	.st305{fill:#D7D7D7;}
	.st306{fill:#ADD3E6;}
	.st307{fill:#98B8C3;}
	.st308{fill:#CDCECF;}
	.st309{fill:#BF4F69;}
	.st310{fill:#A83448;}
	.st311{fill:#A4DAF7;}
	.st312{fill:#81A861;}
	.st313{fill:#82A549;}
	.st314{fill:#B6E676;}
	.st315{fill:#8CBD69;}
	.st316{fill:#ECC62F;}
	.st317{fill:#F4EA80;}
	.st318{fill:#D6AD2B;}
	.st319{fill:#6F9151;}
	.st320{fill:#46699C;}
	.st321{fill:#4A373A;}
	.st322{fill:#89B04C;}
	.st323{fill:#99CC53;}
	.st324{fill:#B1E465;}
	.st325{fill:#E19E3B;}
	.st326{fill:#C05970;}
	.st327{fill:#D95F74;}
	.st328{fill:#74A8DE;}
	.st329{fill:#C47C1E;}
	.st330{fill:#719A51;}
	.st331{fill:#A8D95E;}
	.st332{fill:#D46C53;}
	.st333{fill:#A45340;}
	.st334{fill:#B6594A;}
	.st335{fill:#79A554;}
	.st336{fill:#B6DAF7;}
	.st337{fill:#739F51;}
	.st338{fill:#DDB32B;}
	.st339{fill:#DE8F22;}
	.st340{fill:none;stroke:#46383B;stroke-width:8;stroke-linecap:round;stroke-miterlimit:10;}
	.st341{fill:none;stroke:#3B2F32;stroke-width:8;stroke-linecap:round;stroke-miterlimit:10;}
	.st342{fill:#C8C8C8;}
	.st343{fill:#7F9D49;}
	.st344{fill:#BA5E44;}
	.st345{fill:#92B955;}
	.st346{fill:#D17F6D;}
	.st347{fill:#5D8F4C;}
	.st348{fill:#B75334;}
	.st349{fill:#CA6D57;}
	.st350{fill:#A4574D;}
	.st351{fill:#7FB1E6;}
	.st352{fill:#77A3CD;}
	.st353{fill:#90BA4F;}
	.st354{fill:#5C8F4B;}
	.st355{fill:#ACDE5D;}
	.st356{fill:#6FAC5A;}
	.st357{fill:none;stroke:#9DD055;stroke-width:10;stroke-linecap:round;stroke-miterlimit:10;}
	.st358{fill:#AD5643;}
	.st359{fill:#B96052;}
	.st360{fill:#CB8D84;}
	.st361{fill:#CC6C56;}
	.st362{fill:#DE9A8E;}
	.st363{fill:#D37B6A;}
	.st364{fill:#A87758;}
	.st365{fill:#372A2C;}
	.st366{fill:#B8815C;}
	.st367{fill:#433335;}
	.st368{fill:#2C2325;}
	.st369{fill:#95402B;}
	.st370{fill:#A85441;}
	.st371{fill:#D2C74B;}
	.st372{fill:#B25945;}
	.st373{fill:none;stroke:#594144;stroke-width:15;stroke-linecap:round;stroke-miterlimit:10;}
	.st374{fill:none;stroke:#594144;stroke-width:12;stroke-linecap:round;stroke-miterlimit:10;}
	.st375{fill:#8F473B;}
	.st376{fill:#453538;}
	.st377{fill:#517DAB;}
	.st378{fill:#75A050;}
	.st379{fill:#A5384D;}
	.st380{fill:#CC6075;}
	.st381{fill:#F26B7F;}
	.st382{fill:#C67189;}
	.st383{fill:#B26980;}
	.st384{fill:#D87990;}
	.st385{fill:#F2869B;}
	.st386{fill:#EF8499;}
	.st387{fill:#649CD7;}
	.st388{fill:#639CDB;}
	.st389{fill:#C8ED8D;}
	.st390{fill:#A9DB83;}
	.st391{fill:#9BCF76;}
	.st392{fill:#7EAC58;}
	.st393{fill:#8CC463;}
	.st394{fill:#7FAC5B;}
	.st395{fill:#769C55;}
	.st396{fill:#6A894D;}
	.st397{fill:#769B56;}
	.st398{fill:#9BCC75;}
	.st399{fill:#AF5641;}
	.st400{fill:#F4D576;}
	.st401{fill:#76A055;}
	.st402{fill:#628347;}
	.st403{fill:#4F7B9F;}
	.st404{fill:#466D86;}
	.st405{fill:#4D789C;}
</style>
<g id="BULINE">
	<circle id="XMLID_1088_" class="st4" cx="256" cy="256" r="256"/>
</g>
<g id="Icons">
	<g id="XMLID_4818_">
		<circle id="XMLID_4995_" class="st325" cx="147.7" cy="213.3" r="108.6"/>
		<path id="XMLID_4994_" class="st326" d="M204.7,204.6c0,25.6-16.9,47.3-40.2,54.5c-5.3,1.6-11,2.5-16.8,2.5c-31.5,0-57-25.5-57-57
			s25.5-57,57-57c5.9,0,11.5,0.9,16.8,2.5C187.8,157.3,204.7,179,204.7,204.6z"/>
		<ellipse id="XMLID_4993_" class="st327" cx="164.5" cy="204.6" rx="40.1" ry="54.5"/>
		<path id="XMLID_5098_" class="st10" d="M512,256c0,141.4-114.6,256-256,256S0,397.4,0,256c0-3.6,0.1-7.1,0.2-10.6
			c14.1-1.8,28.2-3.5,42.3-5c19-2,38.1-3.8,57-5.3c10.8-0.8,21.6-1.6,32.3-2.3c22.3-1.4,44.6-2.4,66.9-3c2-0.1,3.9-0.1,5.9-0.2
			c5.8-0.1,11.6-0.3,17.4-0.4c4-0.1,7.9-0.1,11.9-0.2h0.5c4.4,0,8.7-0.1,13.1-0.1c1.3,0,2.7,0,4,0c1.2,0,2.5,0,3.7,0
			c11.5,0,23.1,0.1,34.6,0.3c3.7,0.1,7.5,0.1,11.2,0.2c1,0,2.1,0,3.2,0.1c2.4,0,4.8,0.1,7.2,0.2c0.1,0,0.2,0,0.4,0
			c3.5,0.1,7.1,0.2,10.6,0.3c63.4,2.2,126.6,7.3,189.6,15.5C511.9,249.1,512,252.5,512,256z"/>
		<path id="XMLID_4991_" class="st328" d="M71.9,275.3c46.7-13.7,137.9-31.8,253.1-11.4c5.9,1,6,9.5,0.1,10.7l0,0
			c-10.8,2.2-9.9,18,1.1,18.9c34.4,2.9,74.3,7.9,105.7,16.6c5.8,1.6,5.1,10-0.8,10.6c-21.2,2.4-51.5,7.3-74.8,16.8
			c-9,3.7-7.3,17,2.4,18.3c28.8,3.8,74.1,10.4,102,17.2c5.8,1.4,5.4,9.7-0.4,10.6c-60.3,9.2-228.2,37.4-321.6,79.5
			c-4.7,2.1-9.5-3-7-7.6c3.2-5.7,7.7-12.5,14-18.8c6-6.1,1.4-16.4-7.2-16.2c-14.7,0.4-33.6,2.2-53.1,7.7c-4.9,1.4-8.8-4-6-8.2
			c8-12,22.1-30.2,41.3-44.6c7-5.2,3.9-16.3-4.8-17.1c-13.3-1.3-29.4-1.9-42.9,0.4c-4.8,0.8-8.2-4.7-5.2-8.6
			c8.6-11.6,24.2-28.7,46.7-39.9c8.1-4,6.7-16-2.2-17.9c-11.9-2.6-25.9-5.1-39.3-6.2C67,285.4,66.1,277,71.9,275.3z"/>
		<path id="XMLID_4987_" class="st329" d="M479.6,172.2c-2.4-1.5-5.2-2.4-8.2-2.6c-0.6-0.1-1.1-0.1-1.7-0.1c-2.3,0-4.6,0.4-6.6,1.2
			c-0.3-1.8-0.8-3.5-1.4-5.1c-3.3-8.6-10.6-15.2-19.6-17.4c-2.2-0.6-4.5-0.8-6.9-0.8H435c-0.8-6.1-4.4-11.3-9.6-14.3
			c-2.8-1.6-6.1-2.6-9.6-2.6c-0.4,0-0.9,0-1.3,0c-0.7,0.1-1.5,0.2-2.2,0.3c-0.1-1.4-0.3-2.7-0.7-4c-0.6-2-1.7-3.8-3-5.4
			c-2-2.4-4.7-4.2-7.8-5c-1.3-0.4-2.7-0.6-4.1-0.6c-6.7,0-12.4,4.2-14.7,10.1c-0.6,1.6-1,3.4-1,5.3c-0.2-0.2-0.4-0.4-0.6-0.6
			c-2.7-2.8-6.3-4.7-10.3-5.2c-0.7-0.1-1.4-0.1-2.1-0.1c-1,0-2.1,0.1-3,0.3c-1.1,0.2-2.2,0.5-3.2,0.9c-0.7,0.3-1.4,0.6-2.1,1
			c-0.2,0.1-0.4,0.2-0.6,0.4c-0.1,0-0.1,0.1-0.2,0.1c-0.7,0.4-1.3,0.9-1.9,1.4c-0.2,0.1-0.4,0.3-0.5,0.5c-0.1,0.1-0.2,0.2-0.3,0.3
			c-0.4,0.4-0.7,0.7-1.1,1.1c-0.7,0.8-1.3,1.7-1.9,2.6c-0.5,0.9-0.9,1.8-1.3,2.7c-0.2,0.5-0.4,1.1-0.5,1.6c0,0.2-0.1,0.3-0.1,0.5
			c-0.1,0.3-0.2,0.7-0.2,1c-0.1,0.7-0.2,1.4-0.2,2.1c0,0.3,0,0.5,0,0.8c0,0.2,0,0.4,0,0.6c-0.4-0.2-0.9-0.3-1.3-0.5
			c-1.2-0.3-2.4-0.5-3.7-0.5c-1.2,0-2.4,0.2-3.6,0.5c-0.9,0.2-1.7,0.5-2.5,1c-0.2,0.1-0.4,0.2-0.6,0.3c0,0,0,0,0,0
			c-0.2,0.1-0.4,0.3-0.6,0.4c-0.8,0.5-1.5,1-2.1,1.7c-0.6,0.6-1.2,1.3-1.7,2c-0.7,1.1-1.3,2.2-1.7,3.4c-2.7,0-5.2,0.4-7.7,1.1
			c-2.3,0.7-4.5,1.6-6.5,2.8c-8.3,4.9-13.9,14-13.9,24.4c0,3.6,0.7,7,1.9,10.2c1.3,3.4,3.2,6.5,5.7,9.1c0.7,0.8,1.5,1.5,2.3,2.2
			c1.9,1.6,4,3,6.2,4c2.3,1.1,4.8,1.9,7.4,2.4c1.6,0.3,3.2,0.4,4.8,0.4h136.6c0.6,0,1.1,0,1.7-0.1c6.3-0.5,11.7-4.1,14.8-9.1
			c1.8-2.9,2.9-6.4,2.9-10.1C489.1,181.8,485.3,175.6,479.6,172.2z M407.3,182.7c0.1-0.1,0.2-0.2,0.4-0.3c0,0.1,0.1,0.2,0.1,0.3
			H407.3z"/>
		<g id="XMLID_4908_">
			<path id="XMLID_4986_" class="st330" d="M317.9,51.5c0,0-6.1,2.7-15,4.3c-9.7,1.8-22.6,2.3-34.5-3.3l-8.8-11.6l-4.1,12.8
				c0,0-0.6,0.1-1.7,0.3c-0.9,0.2-2.1,0.4-3.6,0.6c-10.7,1.8-35,4.9-44.9-2.1c0,0,0.5-1,1.6-2.6c0,0,0,0,0,0
				C214.8,38.1,251.3-6.9,317.9,51.5z"/>
			<path id="XMLID_4985_" class="st331" d="M228.9,60.1c-3.5,1.8-8.3,2.3-13.6,2.1C199.3,61.5,179,54,179,54l-2.3-13.2L166.3,51
				c-18.8,5.7-37.9-2.4-45.5-6.2c-2.1-1.1-3.3-1.8-3.3-1.8C201.9-12.1,228.9,60.1,228.9,60.1z"/>
			<path id="XMLID_4984_" class="st154" d="M215.3,62.2C199.3,61.5,179,54,179,54l-2.3-13.2L166.3,51c-18.8,5.7-37.9-2.4-45.5-6.2
				C178.7,13.8,206.1,46.4,215.3,62.2z"/>
			<g id="XMLID_4927_">
				<path id="XMLID_4983_" class="st157" d="M235.9,238.5c-0.1,0-0.1-0.1-0.2-0.1l-13.6-8.4c0.7,4.5,1.4,9.1,2.2,13.6l13.5,6.2
					C237.2,246,236.5,242.3,235.9,238.5z"/>
				<path id="XMLID_4982_" class="st157" d="M225,95.2c0-3,0-5.9,0.1-8.9c-3.5,1.3-7.6,0.7-10.6-1.7l-1.8-1.4
					c-0.1,3-0.1,5.9-0.1,8.9l3.1,1.9C218.5,95.7,221.9,96.1,225,95.2z"/>
				<path id="XMLID_4981_" class="st157" d="M225.7,136.4c-0.1-3-0.2-6-0.3-9c-2.7,0.2-5.5-0.5-7.7-2.3l-4.8-3.9
					c0.1,3.4,0.2,6.8,0.3,10.2l5.4,3.3C220.6,136.1,223.2,136.6,225.7,136.4z"/>
				<path id="XMLID_4980_" class="st157" d="M226.6,155.7c-0.2-3.5-0.4-7-0.6-10.6c-3.1,0.6-6.3-0.2-8.8-2.2l-3.9-3.1
					c0.1,3.2,0.3,6.4,0.5,9.6l7.4,4.5C222.9,155,224.7,155.6,226.6,155.7z"/>
				<path id="XMLID_4979_" class="st157" d="M239.6,259l-14.1-8.7c0.9,4.9,1.8,9.8,2.9,14.7l13.7,6.3
					C241.3,267.2,240.4,263.1,239.6,259z"/>
				<path id="XMLID_4978_" class="st157" d="M231.9,211.6c-0.4-3-0.8-6-1.1-9c-0.6-0.2-1.3-0.5-1.9-0.9l-11.5-7.1
					c0.4,3.7,0.8,7.3,1.3,11l12.2,5.6C231.2,211.4,231.6,211.5,231.9,211.6z"/>
				<path id="XMLID_4977_" class="st157" d="M233.2,220.7c-0.9-0.3-1.7-0.6-2.5-1.1l-11-6.8c0.5,3.5,0.9,7,1.4,10.5l13.3,6.1
					C234,226.5,233.6,223.6,233.2,220.7z"/>
				<path id="XMLID_4976_" class="st157" d="M244.1,280.4l-14.4-8.9c0.9,4.2,1.8,8.3,2.8,12.5l13.9,6.4
					C245.7,287.1,244.9,283.8,244.1,280.4z"/>
				<path id="XMLID_4975_" class="st157" d="M227.8,172.1c-0.2-2.5-0.4-5-0.6-7.5c-2.5,0.1-5.1-0.7-7.2-2.4l-5.7-4.5
					c0.2,3.2,0.4,6.3,0.6,9.5l8.4,3.8C224.8,171.7,226.3,172.1,227.8,172.1z"/>
				<path id="XMLID_4974_" class="st157" d="M225.3,77.5c0-1.3,0.1-2.6,0.1-3.9h-12.4c0,0.4,0,0.7,0,1.1l2.8,1.7
					C218.6,78.1,222.1,78.5,225.3,77.5z"/>
				<path id="XMLID_4973_" class="st157" d="M248.9,300.1c-0.4-0.2-0.8-0.4-1.2-0.6l-13.5-8.3c0.9,3.8,1.9,7.7,2.9,11.5l14.1,6.5
					C250.5,306.1,249.7,303.1,248.9,300.1z"/>
				<path id="XMLID_4972_" class="st157" d="M252.8,318.3l-13.7-8.5c1.6,5.7,3.2,11.5,4.9,17.2h12.4c-0.8-2.7-1.6-5.4-2.4-8.1
					C253.6,318.7,253.2,318.5,252.8,318.3z"/>
				<path id="XMLID_4971_" class="st157" d="M225.1,118.5c-0.1-4.8-0.1-9.7-0.2-14.5c-3.5,1.3-7.5,0.7-10.5-1.7l-1.9-1.5
					c0,4.1,0,8.2,0.1,12.3l6.2,3.8C220.8,117.9,223,118.5,225.1,118.5z"/>
				<path id="XMLID_4970_" class="st157" d="M229.8,193.6c-0.4-4.2-0.9-8.4-1.2-12.6c-1.9,0-3.8-0.6-5.4-1.6l-7.5-4.7
					c0.4,4.3,0.8,8.6,1.2,12.9l12.4,5.7C229.4,193.4,229.6,193.5,229.8,193.6z"/>
				<path id="XMLID_4969_" class="st332" d="M225.4,127.3c0.1,3,0.2,6,0.3,9c1.4-0.1,2.8-0.5,4-1.2l3-1.5c-0.3-2.9-0.6-5.9-0.8-8.8
					l-2.3,1.2C228.2,126.8,226.8,127.2,225.4,127.3z"/>
				<path id="XMLID_4968_" class="st332" d="M226.9,76.8l3.9-1.9c0-0.4,0-0.9,0.1-1.3h-5.5c0,1.3-0.1,2.6-0.1,3.9
					C225.8,77.3,226.4,77.1,226.9,76.8z"/>
				<path id="XMLID_4967_" class="st332" d="M225.1,86.3c0,3-0.1,5.9-0.1,8.9c0.7-0.2,1.3-0.4,1.9-0.8l3.5-1.7c0-3.1,0-6.1,0.1-9.2
					l-4.1,2.2C225.9,85.9,225.5,86.1,225.1,86.3z"/>
				<path id="XMLID_4966_" class="st332" d="M233.2,220.7c0.4,2.9,0.8,5.8,1.3,8.7l1.5,0.7c3.6,1.7,7.9,1.3,11.2-0.9l3.7-2.4
					c-1-3.7-2-7.5-2.9-11.2l-5.3,3.7C239.8,221.2,236.3,221.7,233.2,220.7z"/>
				<path id="XMLID_4965_" class="st332" d="M246,281.5l-1.8-1.1c0.8,3.3,1.5,6.7,2.3,10l1.4,0.7c3.6,1.7,7.9,1.3,11.2-0.9l9-6
					c-0.9-2.8-1.8-5.5-2.7-8.3l-7.6,5.3C254.3,283.7,249.6,283.8,246,281.5z"/>
				<path id="XMLID_4964_" class="st332" d="M240.1,259.3l-0.5-0.3c0.8,4.1,1.6,8.2,2.5,12.4l4,1.9c3.6,1.7,7.9,1.3,11.2-0.9
					l5.7-3.8c-1.5-4.7-3-9.5-4.4-14.2L252,259C248.5,261.4,243.8,261.6,240.1,259.3z"/>
				<path id="XMLID_4963_" class="st332" d="M248.9,300.1c0.8,3,1.6,6.1,2.4,9.1l1.7,0.8c3.6,1.7,7.9,1.3,11.2-0.9l10-6.6
					c-1.2-3.6-2.4-7.3-3.7-10.9l-10.9,7.6C256.4,301.3,252.4,301.6,248.9,300.1z"/>
				<path id="XMLID_4962_" class="st332" d="M235.9,238.5c0.6,3.8,1.3,7.5,2,11.3l2.5,1.1c3.6,1.7,7.9,1.3,11.2-0.9l4.9-3.3
					c-1.2-4.1-2.4-8.2-3.5-12.4l-5.3,3.7C244.2,240.5,239.6,240.7,235.9,238.5z"/>
				<path id="XMLID_4961_" class="st332" d="M228.5,181c0.4,4.2,0.8,8.4,1.2,12.6c3.5,1.4,7.4,1,10.6-1.1l1.8-1.2
					c-1.1-5-2.1-10-3.1-15l-4,2.8C233.1,180.5,230.8,181.1,228.5,181z"/>
				<path id="XMLID_4960_" class="st332" d="M227.2,164.6c0.2,2.5,0.4,5,0.6,7.5c2.4,0.1,4.7-0.6,6.8-1.9l3-2
					c-0.4-2.4-0.8-4.8-1.2-7.2l-4.4,2.4C230.4,164.2,228.8,164.6,227.2,164.6z"/>
				<path id="XMLID_4959_" class="st332" d="M230.8,202.6c0.4,3,0.7,6,1.1,9c3.4,1.2,7.2,0.7,10.2-1.3l3.8-2.5
					c-0.7-2.9-1.4-5.7-2-8.6l-3.1,2.1C237.9,203.4,234.1,203.9,230.8,202.6z"/>
				<path id="XMLID_4958_" class="st332" d="M226,145.1c0.2,3.5,0.4,7,0.6,10.6c2,0.1,4-0.3,5.9-1.2l2.7-1.3
					c-0.6-3.8-1.1-7.6-1.5-11.5l-4.5,2.4C228.1,144.6,227.1,144.9,226,145.1z"/>
				<path id="XMLID_4957_" class="st332" d="M225,103.9c0,4.8,0.1,9.7,0.2,14.5c1.7,0,3.4-0.4,4.9-1.2l1.1-0.6
					c-0.3-5.2-0.6-10.4-0.7-15.6l-4.2,2.2C225.9,103.5,225.5,103.8,225,103.9z"/>
				<path id="XMLID_4956_" class="st332" d="M281.4,323.6c-1.2,1.2-2.4,2.3-3.6,3.4h-21.4c-0.8-2.7-1.6-5.4-2.4-8.1
					c3.4,1.6,7.5,1.2,10.7-1l4.3-3l1.1-0.7l6.6-4.6c0.6,1.6,1.1,3.3,1.7,4.9c0,0.2,0.1,0.3,0.2,0.4
					C279.4,317.8,280.4,320.7,281.4,323.6z"/>
				<path id="XMLID_4955_" class="st333" d="M248.9,300.1c-0.8-3.2-1.6-6.4-2.4-9.6l-13.9-6.4c0.5,2.4,1.1,4.7,1.7,7.1l13.5,8.3
					C248.1,299.7,248.5,299.9,248.9,300.1z"/>
				<path id="XMLID_4954_" class="st334" d="M247.9,291.1l-1.4-0.7c0.8,3.2,1.6,6.4,2.4,9.6c3.5,1.6,7.5,1.3,10.7-1l10.9-7.6
					c-0.8-2.4-1.6-4.8-2.4-7.3l-9,6C255.8,292.4,251.6,292.7,247.9,291.1z"/>
				<path id="XMLID_4953_" class="st333" d="M254,318.9c-0.9-3.3-1.8-6.5-2.7-9.8l-14.1-6.5c0.6,2.4,1.3,4.8,1.9,7.2l13.7,8.5
					C253.2,318.5,253.6,318.7,254,318.9z"/>
				<path id="XMLID_4952_" class="st334" d="M253,309.9l-1.7-0.8c0.9,3.3,1.8,6.5,2.7,9.8c3.5,1.6,7.5,1.2,10.7-1l11.9-8.3
					c-0.8-2.4-1.6-4.8-2.4-7.2l-10,6.6C260.9,311.3,256.6,311.6,253,309.9z"/>
				<path id="XMLID_4951_" class="st333" d="M242.1,271.3l-13.7-6.3c0.4,2.2,0.9,4.3,1.4,6.5l14.4,8.9
					C243.5,277.4,242.8,274.4,242.1,271.3z"/>
				<path id="XMLID_4950_" class="st334" d="M246.2,273.2l-4-1.9c0.6,3,1.3,6.1,2,9.1l1.8,1.1c3.7,2.3,8.4,2.1,11.9-0.3l7.6-5.3
					c-0.8-2.5-1.6-4.9-2.3-7.4l-5.7,3.8C254,274.5,249.8,274.9,246.2,273.2z"/>
				<path id="XMLID_4949_" class="st333" d="M237.9,249.8l-13.5-6.2c0.4,2.2,0.8,4.5,1.2,6.7l14.1,8.7
					C239,255.9,238.4,252.9,237.9,249.8z"/>
				<path id="XMLID_4948_" class="st334" d="M240.3,250.9l-2.5-1.1c0.6,3.1,1.1,6.1,1.7,9.2l0.5,0.3c3.7,2.3,8.4,2.1,11.9-0.3
					l6.7-4.7c-0.8-2.5-1.5-5-2.2-7.5l-4.9,3.3C248.2,252.3,244,252.6,240.3,250.9z"/>
				<path id="XMLID_4947_" class="st333" d="M233.2,220.7c-0.4-3-0.8-6-1.2-9.1c-0.3-0.1-0.7-0.2-1-0.4l-12.2-5.6
					c0.3,2.4,0.6,4.7,0.9,7.1l11,6.8C231.5,220.1,232.3,220.4,233.2,220.7z"/>
				<path id="XMLID_4946_" class="st334" d="M231.9,211.6c0.4,3,0.8,6,1.2,9.1c3.2,1,6.7,0.5,9.5-1.4l5.3-3.7
					c-0.7-2.6-1.3-5.2-1.9-7.8l-3.8,2.5C239.1,212.4,235.3,212.8,231.9,211.6z"/>
				<path id="XMLID_4945_" class="st333" d="M235.9,238.5c-0.5-3-1-6.1-1.5-9.1l-13.3-6.1c0.3,2.3,0.7,4.5,1,6.8l13.6,8.4
					C235.8,238.4,235.9,238.5,235.9,238.5z"/>
				<path id="XMLID_4944_" class="st334" d="M236,230.1l-1.5-0.7c0.5,3,1,6.1,1.5,9.1c3.7,2.2,8.3,2,11.8-0.4l5.3-3.7
					c-0.7-2.5-1.4-5.1-2.1-7.6l-3.7,2.4C243.9,231.4,239.6,231.7,236,230.1z"/>
				<path id="XMLID_4943_" class="st333" d="M230.8,202.6c-0.4-3-0.7-6-1-9c-0.2-0.1-0.4-0.2-0.6-0.3l-12.4-5.7
					c0.2,2.3,0.5,4.6,0.7,7l11.5,7.1C229.5,202.1,230.2,202.4,230.8,202.6z"/>
				<path id="XMLID_4942_" class="st334" d="M229.8,193.6c0.3,3,0.7,6,1,9c3.3,1.3,7.1,0.8,10.1-1.2l3.1-2.1
					c-0.6-2.6-1.2-5.3-1.8-7.9l-1.8,1.2C237.2,194.6,233.3,195,229.8,193.6z"/>
				<path id="XMLID_4941_" class="st333" d="M228.5,181c-0.3-3-0.5-5.9-0.8-8.9c-1.5-0.1-3-0.4-4.4-1l-8.4-3.8
					c0.2,2.5,0.4,5,0.6,7.5l7.5,4.7C224.8,180.5,226.7,181,228.5,181z"/>
				<path id="XMLID_4940_" class="st334" d="M227.8,172.1c0.2,3,0.5,5.9,0.8,8.9c2.3,0.1,4.6-0.6,6.5-1.9l4-2.8
					c-0.5-2.7-1-5.4-1.5-8.1l-3,2C232.5,171.6,230.1,172.2,227.8,172.1z"/>
				<path id="XMLID_4939_" class="st333" d="M226,145.1c-0.1-2.9-0.3-5.9-0.4-8.8c-2.5,0.2-5-0.3-7.2-1.6l-5.4-3.3
					c0.1,2.8,0.2,5.7,0.3,8.5l3.9,3.1C219.8,145,223,145.7,226,145.1z"/>
				<path id="XMLID_4937_" class="st334" d="M225.7,136.4c0.1,2.9,0.2,5.9,0.4,8.8c1.1-0.2,2.1-0.6,3.1-1.1l4.5-2.4
					c-0.3-2.7-0.6-5.3-0.9-8l-3,1.5C228.4,135.8,227,136.2,225.7,136.4z"/>
				<path id="XMLID_4936_" class="st333" d="M227.2,164.6c-0.2-3-0.4-6-0.6-8.9c-1.9-0.1-3.7-0.7-5.4-1.7l-7.4-4.5
					c0.1,2.8,0.3,5.5,0.5,8.3l5.7,4.5C222.1,163.9,224.7,164.7,227.2,164.6z"/>
				<path id="XMLID_4935_" class="st334" d="M226.6,155.7c0.2,3,0.4,6,0.6,8.9c1.6-0.1,3.2-0.5,4.7-1.3l4.4-2.4
					c-0.4-2.6-0.8-5.2-1.2-7.9l-2.7,1.3C230.6,155.4,228.6,155.8,226.6,155.7z"/>
				<path id="XMLID_4934_" class="st333" d="M225.4,127.3c-0.1-3-0.2-5.9-0.2-8.9c-2.2,0-4.4-0.5-6.3-1.7l-6.2-3.8
					c0,2.7,0.1,5.5,0.1,8.2l4.8,3.9C219.9,126.8,222.6,127.6,225.4,127.3z"/>
				<path id="XMLID_4933_" class="st334" d="M225.1,118.5c0.1,3,0.1,5.9,0.2,8.9c1.4-0.1,2.8-0.5,4.2-1.2l2.3-1.2
					c-0.2-2.7-0.4-5.5-0.6-8.2l-1.1,0.6C228.5,118,226.8,118.4,225.1,118.5z"/>
				<path id="XMLID_4931_" class="st333" d="M225,103.9c0-2.9,0-5.8,0-8.7c-3.1,0.9-6.5,0.5-9.3-1.2l-3.1-1.9c0,2.9,0,5.8,0,8.6
					l1.9,1.5C217.5,104.6,221.5,105.2,225,103.9z"/>
				<path id="XMLID_4930_" class="st334" d="M225,95.2c0,2.9,0,5.8,0,8.7c0.5-0.2,0.9-0.4,1.4-0.6l4.2-2.2c-0.1-2.8-0.1-5.6-0.1-8.4
					l-3.5,1.7C226.3,94.7,225.7,95,225,95.2z"/>
				<path id="XMLID_4929_" class="st333" d="M225.1,86.3c0-2.9,0.1-5.8,0.2-8.8c-3.2,1-6.7,0.6-9.6-1.2l-2.8-1.7
					c-0.1,2.9-0.1,5.7-0.2,8.6l1.8,1.4C217.5,87,221.5,87.6,225.1,86.3z"/>
				<path id="XMLID_4928_" class="st334" d="M225.3,77.5c-0.1,2.9-0.1,5.8-0.2,8.8c0.4-0.2,0.9-0.4,1.3-0.6l4.1-2.2
					c0.1-2.9,0.2-5.8,0.3-8.6l-3.9,1.9C226.4,77.1,225.8,77.3,225.3,77.5z"/>
			</g>
			<path id="XMLID_4926_" class="st331" d="M220.5,53.9c-1.2,3.7-4.2,7.5-8,11.1c-11.7,11-31.3,20.1-31.3,20.1l-11-7.7v14.6
				c-9.1,17.4-28.3,25.4-36.3,28.1c-2.3,0.8-3.6,1.1-3.6,1.1C150.2,22.4,220.5,53.9,220.5,53.9z"/>
			<path id="XMLID_4925_" class="st154" d="M212.5,65c-11.7,11-31.3,20.1-31.3,20.1l-11-7.7v14.6c-9.1,17.4-28.3,25.4-36.3,28.1
				C152.4,57.1,194.8,60.5,212.5,65z"/>
			<path id="XMLID_4924_" class="st124" d="M309.1,121.2c0,0-6.5-1.6-14.5-5.6c-8.7-4.4-19.3-11.9-25.4-23.5V77.5l-11,7.7
				c0,0-0.6-0.3-1.6-0.8c-0.8-0.4-1.9-1-3.2-1.7c-9.7-5-30.8-17.2-34.5-28.9c0,0,1-0.5,2.9-1.1c0,0,0,0,0,0
				C235.2,48.1,291.6,34.4,309.1,121.2z"/>
			<path id="XMLID_4923_" class="st330" d="M294.6,115.6c-8.7-4.4-19.3-11.9-25.4-23.5V77.5l-11,7.7c0,0-0.6-0.3-1.6-0.8v-3.9
				l-3.2,2.2c-9.7-5-30.8-17.2-34.5-28.9c0,0,1-0.5,2.9-1.1c0,0,0,0,0,0C242.6,49.8,279.2,54.3,294.6,115.6z"/>
			<path id="XMLID_4922_" class="st335" d="M275.2,153.1c0,0-22.7-18.2-23.8-43.4l6.2-13.2l-13.2,2.2c0,0-5.3-6.4-10.8-14.8
				c-6.2-9.6-12.7-21.8-11.5-30.2c0,0,12.5,0.2,25.9,6.9C267.7,70.6,289.5,94.6,275.2,153.1z"/>
			<path id="XMLID_4921_" class="st330" d="M247.9,60.7c0,9.9-5.7,18.5-14.3,23.4c-6.2-9.6-12.7-21.8-11.5-30.2
				C222,53.8,234.5,54,247.9,60.7z"/>
			<g id="XMLID_4917_">
				<path id="XMLID_4920_" class="st84" d="M239.3,102.2c-5.5,4.7-13,5.2-19,2c-1.7-1-3.3-2.2-4.7-3.8c-6-7-5.2-17.7,1.8-23.7
					c7-6,17.7-5.2,23.7,1.8c1.4,1.6,2.4,3.4,3.1,5.2C246.5,90.1,244.8,97.5,239.3,102.2z"/>
				<path id="XMLID_4919_" class="st2" d="M239.3,102.2c-5.5,4.7-13,5.2-19,2c-2.3-6.4-0.6-13.8,4.9-18.5c5.5-4.7,13-5.2,19-2
					C246.5,90.1,244.8,97.5,239.3,102.2z"/>
				<circle id="XMLID_4918_" class="st85" cx="236" cy="93.9" r="5"/>
			</g>
			<g id="XMLID_4913_">
				<path id="XMLID_4916_" class="st86" d="M183.6,100.5c-3.6-6.2-2.8-13.8,1.5-19c1.3-1.5,2.8-2.9,4.6-3.9c8-4.6,18.3-1.9,23,6.1
					c4.6,8,1.9,18.3-6.1,23c-1.8,1.1-3.7,1.7-5.7,2C194.2,109.7,187.2,106.7,183.6,100.5z"/>
				<path id="XMLID_4915_" class="st87" d="M183.6,100.5c-3.6-6.2-2.8-13.8,1.5-19c6.7-1.1,13.7,1.9,17.3,8.2
					c3.6,6.2,2.8,13.8-1.5,19C194.2,109.7,187.2,106.7,183.6,100.5z"/>
				<circle id="XMLID_4914_" class="st88" cx="192.4" cy="98.7" r="5"/>
			</g>
			<g id="XMLID_4909_">
				<path id="XMLID_4912_" class="st84" d="M231.8,68.9c0,7.2-4.5,13.3-10.8,15.7c-1.9,0.7-3.9,1.1-6,1.1c-9.3,0-16.8-7.5-16.8-16.8
					c0-9.3,7.5-16.8,16.8-16.8c2.1,0,4.1,0.4,6,1.1C227.3,55.6,231.8,61.7,231.8,68.9z"/>
				<path id="XMLID_4911_" class="st2" d="M231.8,68.9c0,7.2-4.5,13.3-10.8,15.7c-6.3-2.4-10.8-8.5-10.8-15.7
					c0-7.2,4.5-13.3,10.8-15.7C227.3,55.6,231.8,61.7,231.8,68.9z"/>
				<circle id="XMLID_4910_" class="st85" cx="223.4" cy="66.1" r="5"/>
			</g>
		</g>
		<g id="XMLID_4829_">
			<path id="XMLID_4907_" class="st330" d="M428.5,155.7c0,0-5.5-0.2-12.7-2.2c-7.8-2.2-17.7-6.4-24.6-14.9l-2.4-11.8l-7.7,8
				c0,0-0.5-0.1-1.4-0.4c-0.7-0.2-1.7-0.5-2.9-0.8c-8.7-2.5-27.9-8.9-32.8-17.7c0,0,0.8-0.5,2.2-1.4c0,0,0,0,0,0
				C356.3,108.6,399.8,88,428.5,155.7z"/>
			<path id="XMLID_4906_" class="st331" d="M358.9,130c-3.3,0.1-7-1.3-10.9-3.3c-11.8-6.2-24.2-19.2-24.2-19.2l3.1-10.7l-11.4,3.9
				c-16.1-2.5-27.5-15.4-31.7-21c-1.2-1.6-1.8-2.6-1.8-2.6C364.8,66.4,358.9,130,358.9,130z"/>
			<path id="XMLID_4905_" class="st154" d="M348,126.7c-11.8-6.2-24.2-19.2-24.2-19.2l3.1-10.7l-11.4,3.9
				c-16.1-2.5-27.5-15.4-31.7-21C338.1,77.4,346.8,111.6,348,126.7z"/>
			<g id="XMLID_4850_">
				<path id="XMLID_4904_" class="st157" d="M299.9,265.8c0,0-0.1-0.1-0.1-0.1l-7.1-11.2c-1.1,3.6-2.2,7.3-3.2,11l7.9,9.5
					C298.2,271.9,299,268.9,299.9,265.8z"/>
				<path id="XMLID_4903_" class="st157" d="M343.4,154.8c1.1-2.2,2.2-4.4,3.3-6.6c-3.1-0.3-5.9-2.2-7.3-5.1l-0.8-1.7
					c-1.1,2.2-2.2,4.4-3.3,6.6l1.6,2.5C338.4,152.9,340.7,154.4,343.4,154.8z"/>
				<path id="XMLID_4902_" class="st157" d="M329,185.8c1-2.3,2-4.6,3-6.8c-2.1-0.8-3.9-2.4-4.9-4.5l-2.2-4.6
					c-1.2,2.6-2.3,5.2-3.5,7.8l2.8,4.4C325.4,183.8,327.1,185.1,329,185.8z"/>
				<path id="XMLID_4901_" class="st157" d="M322.8,200.6c1.1-2.7,2.2-5.4,3.4-8.1c-2.5-0.7-4.6-2.4-5.8-4.8l-1.8-3.7
					c-1,2.4-2.1,4.9-3.1,7.3l3.9,6C320.3,198.8,321.4,199.9,322.8,200.6z"/>
				<path id="XMLID_4900_" class="st157" d="M295.3,282.5l-7.4-11.6c-1.1,4-2.2,8-3.2,12l8,9.7C293.6,289.2,294.5,285.8,295.3,282.5
					z"/>
				<path id="XMLID_4899_" class="st157" d="M306.6,244.3c0.8-2.4,1.6-4.8,2.4-7.1c-0.4-0.4-0.7-0.9-1.1-1.3l-6-9.4
					c-1,2.9-2,5.8-3,8.7l7.1,8.6C306.2,243.9,306.4,244.1,306.6,244.3z"/>
				<path id="XMLID_4898_" class="st157" d="M304.3,251.5c-0.5-0.5-1-1.1-1.4-1.7l-5.8-9.1c-0.9,2.8-1.8,5.6-2.7,8.3l7.8,9.4
					C302.8,256.2,303.6,253.8,304.3,251.5z"/>
				<path id="XMLID_4897_" class="st157" d="M291,300.1l-7.5-11.8c-0.8,3.4-1.6,6.9-2.4,10.3l8.1,9.8
					C289.7,305.6,290.4,302.9,291,300.1z"/>
				<path id="XMLID_4896_" class="st157" d="M317.7,213.3c0.7-1.9,1.5-3.9,2.3-5.8c-1.9-0.8-3.6-2.4-4.5-4.3l-2.6-5.4
					c-1,2.4-2,4.9-2.9,7.3l4.9,5.9C315.6,211.9,316.6,212.7,317.7,213.3z"/>
				<path id="XMLID_4895_" class="st157" d="M349.9,141.7c0.5-1,1-1.9,1.5-2.9l-9.3-4.5c-0.1,0.3-0.3,0.5-0.4,0.8l1.5,2.3
					C344.7,139.8,347.2,141.3,349.9,141.7z"/>
				<path id="XMLID_4894_" class="st157" d="M287.5,316.5c-0.2-0.3-0.5-0.6-0.7-0.9l-7.1-11.1c-0.7,3.2-1.4,6.4-2,9.7l8.2,10
					C286.5,321.6,287,319,287.5,316.5z"/>
				<path id="XMLID_4893_" class="st157" d="M283.8,331.5l-7.2-11.3c-0.9,4.8-1.7,9.7-2.5,14.6l9.3,4.5c0.4-2.3,0.7-4.6,1.1-6.9
					C284.3,332.1,284,331.8,283.8,331.5z"/>
				<path id="XMLID_4892_" class="st157" d="M335.1,172.3c1.7-3.7,3.4-7.3,5.1-10.9c-3.1-0.3-5.9-2.2-7.2-5.1l-0.9-1.8
					c-1.5,3.1-2.9,6.1-4.4,9.2l3.3,5.1C332,170.3,333.5,171.5,335.1,172.3z"/>
				<path id="XMLID_4891_" class="st157" d="M311.5,230.1c1.2-3.3,2.4-6.6,3.6-9.8c-1.4-0.7-2.6-1.8-3.5-3.2l-4-6.2
					c-1.3,3.3-2.5,6.7-3.8,10l7.2,8.7C311.3,229.8,311.4,230,311.5,230.1z"/>
				<path id="XMLID_4890_" class="st332" d="M332.1,179c-1,2.3-2,4.6-3,6.8c1.1,0.4,2.2,0.6,3.4,0.6l2.8,0c0.8-2.3,1.7-4.6,2.5-6.9
					l-2.2,0.1C334.4,179.6,333.2,179.4,332.1,179z"/>
				<path id="XMLID_4889_" class="st332" d="M351.4,141.8l3.6-0.1c0.2-0.3,0.3-0.6,0.5-1l-4.1-2c-0.5,1-1,1.9-1.5,2.9
					C350.4,141.8,350.9,141.8,351.4,141.8z"/>
				<path id="XMLID_4888_" class="st332" d="M346.7,148.2c-1.1,2.2-2.2,4.4-3.3,6.6c0.6,0.1,1.1,0.1,1.7,0.1l3.2-0.1
					c1.1-2.3,2.2-4.6,3.4-6.8l-3.9,0.2C347.4,148.3,347,148.3,346.7,148.2z"/>
				<path id="XMLID_4887_" class="st332" d="M304.3,251.5c-0.7,2.3-1.5,4.6-2.2,6.9l0.9,1.1c2.1,2.6,5.4,3.8,8.7,3.4l3.6-0.5
					c0.6-3.2,1.2-6.3,1.8-9.4l-5.3,0.8C309.1,254.3,306.3,253.4,304.3,251.5z"/>
				<path id="XMLID_4886_" class="st332" d="M291.9,301.6l-0.9-1.5c-0.6,2.8-1.2,5.5-1.8,8.3l0.8,1c2.1,2.6,5.4,3.8,8.7,3.4l8.9-1.2
					c0.3-2.4,0.6-4.8,1-7.2l-7.6,1.2C297.4,306.2,293.9,304.6,291.9,301.6z"/>
				<path id="XMLID_4885_" class="st332" d="M295.6,282.9l-0.3-0.4c-0.9,3.4-1.7,6.8-2.6,10.1l2.3,2.8c2.1,2.6,5.4,3.8,8.7,3.4
					l5.7-0.8c0.6-4.1,1.2-8.2,1.8-12.2l-6.7,1.1C301.1,287.5,297.5,285.9,295.6,282.9z"/>
				<path id="XMLID_4884_" class="st332" d="M287.5,316.5c-0.5,2.5-1,5.1-1.5,7.7l1,1.2c2.1,2.6,5.4,3.8,8.7,3.4l9.9-1.4
					c0.4-3.2,0.8-6.3,1.2-9.5l-10.9,1.8C292.7,320.1,289.5,318.9,287.5,316.5z"/>
				<path id="XMLID_4883_" class="st332" d="M299.9,265.8c-0.9,3-1.8,6.1-2.6,9.2l1.4,1.7c2.1,2.6,5.4,3.8,8.7,3.4l4.9-0.7
					c0.6-3.5,1.2-7,1.8-10.5l-5.3,0.8C305.4,270.3,301.9,268.8,299.9,265.8z"/>
				<path id="XMLID_4882_" class="st332" d="M315.1,220.3c-1.2,3.3-2.4,6.5-3.6,9.8c2.1,2.3,5.2,3.4,8.3,3l1.7-0.2
					c1-4.1,2-8.2,3.1-12.3l-4,0.6C318.7,221.5,316.8,221.1,315.1,220.3z"/>
				<path id="XMLID_4881_" class="st332" d="M320,207.5c-0.8,1.9-1.5,3.9-2.3,5.8c1.7,0.9,3.7,1.3,5.7,1l3-0.4
					c0.5-1.9,1.1-3.9,1.7-5.8l-4.2,0.2C322.6,208.3,321.2,208.1,320,207.5z"/>
				<path id="XMLID_4880_" class="st332" d="M309,237.2c-0.8,2.4-1.6,4.8-2.4,7.1c2.1,2.1,5.1,3.1,8.1,2.7l3.8-0.5
					c0.5-2.4,1-4.8,1.6-7.1l-3.1,0.5C314,240.4,311.1,239.3,309,237.2z"/>
				<path id="XMLID_4879_" class="st332" d="M326.2,192.5c-1.1,2.7-2.3,5.4-3.4,8.1c1.4,0.8,3.1,1.2,4.8,1.2l2.5,0
					c1-3.1,1.9-6.1,3-9.1l-4.2,0.2C327.9,192.9,327,192.8,326.2,192.5z"/>
				<path id="XMLID_4878_" class="st332" d="M340.2,161.4c-1.7,3.6-3.4,7.3-5.1,10.9c1.3,0.6,2.7,0.9,4.1,0.9l1.1,0
					c1.6-4,3.3-8,5.1-11.9l-3.9,0.2C341.1,161.4,340.6,161.4,340.2,161.4z"/>
				<path id="XMLID_4877_" class="st332" d="M303.3,345.7c-1.3,0.4-2.6,0.9-4,1.2l-16-7.7c0.4-2.3,0.7-4.6,1.1-6.9
					c2,2.4,5.2,3.6,8.3,3.1l4.3-0.7l1.1-0.2l6.6-1.1c-0.2,1.4-0.3,2.8-0.5,4.3c0,0.1,0,0.3,0,0.4
					C303.9,340.8,303.6,343.3,303.3,345.7z"/>
				<path id="XMLID_4876_" class="st333" d="M287.5,316.5c0.5-2.7,1.1-5.4,1.7-8.1l-8.1-9.8c-0.4,2-0.9,3.9-1.3,5.9l7.1,11.1
					C287,315.9,287.2,316.2,287.5,316.5z"/>
				<path id="XMLID_4875_" class="st334" d="M290,309.4l-0.8-1c-0.6,2.7-1.1,5.4-1.7,8.1c2,2.4,5.2,3.7,8.4,3.1l10.9-1.8
					c0.3-2.1,0.6-4.2,0.8-6.3l-8.9,1.2C295.4,313.3,292.1,312,290,309.4z"/>
				<path id="XMLID_4874_" class="st333" d="M284.5,332.4c0.5-2.8,1-5.5,1.5-8.3l-8.2-10c-0.4,2-0.8,4-1.2,6l7.2,11.3
					C284,331.8,284.3,332.1,284.5,332.4z"/>
				<path id="XMLID_4873_" class="st334" d="M287,325.3l-1-1.2c-0.5,2.8-1,5.5-1.5,8.3c2,2.4,5.2,3.6,8.3,3.1l11.9-1.9
					c0.3-2.1,0.5-4.2,0.8-6.3l-9.9,1.4C292.4,329.2,289.1,327.9,287,325.3z"/>
				<path id="XMLID_4872_" class="st333" d="M292.8,292.6l-8-9.7c-0.5,1.8-0.9,3.6-1.3,5.4l7.5,11.8
					C291.6,297.6,292.2,295.1,292.8,292.6z"/>
				<path id="XMLID_4871_" class="st334" d="M295.1,295.4l-2.3-2.8c-0.6,2.5-1.2,5-1.8,7.5l0.9,1.5c1.9,3,5.5,4.6,9,4l7.6-1.2
					c0.3-2.1,0.6-4.3,0.9-6.4l-5.7,0.8C300.5,299.3,297.2,298,295.1,295.4z"/>
				<path id="XMLID_4870_" class="st333" d="M297.3,275l-7.9-9.5c-0.5,1.8-1,3.6-1.5,5.4l7.4,11.6C296,280,296.7,277.5,297.3,275z"
					/>
				<path id="XMLID_4869_" class="st334" d="M298.8,276.7l-1.4-1.7c-0.7,2.5-1.4,5-2,7.5l0.3,0.4c1.9,3,5.5,4.6,9,4l6.7-1.1
					c0.3-2.1,0.7-4.3,1-6.4l-4.9,0.7C304.2,280.6,300.9,279.3,298.8,276.7z"/>
				<path id="XMLID_4868_" class="st333" d="M304.3,251.5c0.8-2.4,1.5-4.8,2.3-7.2c-0.2-0.2-0.4-0.4-0.6-0.7l-7.1-8.6
					c-0.6,1.9-1.3,3.8-1.9,5.6l5.8,9.1C303.3,250.5,303.8,251,304.3,251.5z"/>
				<path id="XMLID_4867_" class="st334" d="M306.6,244.3c-0.8,2.4-1.6,4.8-2.3,7.2c2,1.9,4.8,2.8,7.6,2.3l5.3-0.8
					c0.4-2.2,0.9-4.3,1.3-6.5l-3.8,0.5C311.7,247.5,308.7,246.4,306.6,244.3z"/>
				<path id="XMLID_4866_" class="st333" d="M299.9,265.8c0.7-2.5,1.5-4.9,2.2-7.4l-7.8-9.4c-0.6,1.8-1.1,3.6-1.7,5.4l7.1,11.2
					C299.9,265.8,299.9,265.8,299.9,265.8z"/>
				<path id="XMLID_4865_" class="st334" d="M303,259.6l-0.9-1.1c-0.7,2.4-1.5,4.9-2.2,7.4c1.9,2.9,5.4,4.5,8.9,3.9l5.3-0.8
					c0.4-2.2,0.8-4.3,1.2-6.5l-3.6,0.5C308.4,263.4,305.1,262.1,303,259.6z"/>
				<path id="XMLID_4864_" class="st333" d="M309,237.2c0.8-2.4,1.6-4.7,2.5-7.1c-0.1-0.1-0.2-0.3-0.4-0.4l-7.2-8.7
					c-0.7,1.8-1.3,3.6-2,5.5l6,9.4C308.3,236.3,308.6,236.8,309,237.2z"/>
				<path id="XMLID_4863_" class="st334" d="M311.5,230.1c-0.8,2.4-1.7,4.7-2.5,7.1c2,2.1,5,3.2,8,2.7l3.1-0.5
					c0.5-2.2,1-4.4,1.5-6.6l-1.7,0.2C316.7,233.5,313.6,232.4,311.5,230.1z"/>
				<path id="XMLID_4862_" class="st333" d="M315.1,220.3c0.9-2.3,1.7-4.6,2.6-6.9c-1.1-0.6-2.1-1.4-2.9-2.4l-4.9-5.9
					c-0.8,1.9-1.5,3.9-2.3,5.8l4,6.2C312.5,218.5,313.7,219.5,315.1,220.3z"/>
				<path id="XMLID_4861_" class="st334" d="M317.7,213.3c-0.9,2.3-1.8,4.6-2.6,6.9c1.7,0.9,3.6,1.2,5.6,0.9l4-0.6
					c0.6-2.2,1.2-4.4,1.8-6.6l-3,0.4C321.5,214.6,319.5,214.2,317.7,213.3z"/>
				<path id="XMLID_4860_" class="st333" d="M326.2,192.5c0.9-2.2,1.9-4.5,2.9-6.7c-1.9-0.7-3.6-2-4.8-3.8l-2.8-4.4
					c-0.9,2.1-1.9,4.3-2.8,6.5l1.8,3.7C321.5,190.2,323.7,191.9,326.2,192.5z"/>
				<path id="XMLID_4859_" class="st334" d="M329,185.8c-1,2.2-1.9,4.5-2.9,6.7c0.9,0.2,1.8,0.3,2.7,0.3l4.2-0.2
					c0.7-2.1,1.4-4.2,2.2-6.3l-2.8,0C331.3,186.4,330.1,186.2,329,185.8z"/>
				<path id="XMLID_4858_" class="st333" d="M320,207.5c0.9-2.3,1.8-4.6,2.8-6.9c-1.4-0.8-2.5-1.8-3.4-3.2l-3.9-6
					c-0.9,2.1-1.8,4.2-2.6,6.3l2.6,5.4C316.5,205.2,318.1,206.7,320,207.5z"/>
				<path id="XMLID_4857_" class="st334" d="M322.8,200.6c-0.9,2.3-1.9,4.6-2.8,6.9c1.2,0.5,2.6,0.8,4,0.7l4.2-0.2
					c0.6-2.1,1.3-4.2,1.9-6.3l-2.5,0C325.9,201.9,324.2,201.4,322.8,200.6z"/>
				<path id="XMLID_4856_" class="st333" d="M332.1,179c1-2.2,2-4.5,3-6.7c-1.7-0.7-3.1-2-4.1-3.5l-3.3-5.1c-1,2.1-1.9,4.1-2.8,6.2
					l2.2,4.6C328.2,176.6,329.9,178.2,332.1,179z"/>
				<path id="XMLID_4855_" class="st334" d="M335.1,172.3c-1,2.2-2,4.5-3,6.7c1.1,0.4,2.3,0.6,3.5,0.6l2.2-0.1
					c0.8-2.1,1.6-4.2,2.5-6.4l-1.1,0C337.8,173.2,336.4,172.9,335.1,172.3z"/>
				<path id="XMLID_4854_" class="st333" d="M340.2,161.4c1-2.2,2.1-4.4,3.2-6.5c-2.6-0.4-5-2-6.5-4.3l-1.6-2.5
					c-1.1,2.1-2.1,4.3-3.1,6.4l0.9,1.8C334.4,159.2,337.1,161.1,340.2,161.4z"/>
				<path id="XMLID_4853_" class="st334" d="M343.4,154.8c-1.1,2.2-2.1,4.3-3.2,6.5c0.4,0,0.8,0.1,1.3,0l3.9-0.2
					c1-2.1,1.9-4.2,2.9-6.3l-3.2,0.1C344.5,155,343.9,154.9,343.4,154.8z"/>
				<path id="XMLID_4852_" class="st333" d="M346.7,148.2c1.1-2.2,2.2-4.3,3.3-6.5c-2.7-0.4-5.2-1.9-6.7-4.3l-1.5-2.3
					c-1.1,2.1-2.2,4.2-3.2,6.3l0.8,1.7C340.7,146,343.5,147.9,346.7,148.2z"/>
				<path id="XMLID_4851_" class="st334" d="M349.9,141.7c-1.1,2.2-2.2,4.3-3.3,6.5c0.4,0,0.8,0,1.2,0l3.9-0.2
					c1.1-2.1,2.2-4.2,3.3-6.3l-3.6,0.1C350.9,141.8,350.4,141.8,349.9,141.7z"/>
			</g>
			<path id="XMLID_4849_" class="st331" d="M354.9,122.4c-2.2,2.4-5.8,4.1-10,5.4c-12.7,4-30.6,3.8-30.6,3.8l-5.5-9.7l-5.2,10.9
				c-13.1,9.7-30.3,8.8-37.2,7.9c-2-0.2-3.1-0.5-3.1-0.5C313.7,73.5,354.9,122.4,354.9,122.4z"/>
			<path id="XMLID_4848_" class="st154" d="M344.9,127.8c-12.7,4-30.6,3.8-30.6,3.8l-5.5-9.7l-5.2,10.9c-13.1,9.7-30.3,8.8-37.2,7.9
				C302.8,100.3,333.3,118.1,344.9,127.8z"/>
			<path id="XMLID_4846_" class="st124" d="M396.8,204.6c0,0-4.3-3.5-8.8-9.5c-4.9-6.5-10.2-15.8-10.6-26.7l5.2-10.9l-11,1.7
				c0,0-0.3-0.4-0.9-1.1c-0.5-0.6-1.1-1.4-1.8-2.4c-5.4-7.2-16.8-24-15.4-34c0,0,0.9,0,2.6,0.2c0,0,0,0,0,0
				C367.9,123.4,415,133.4,396.8,204.6z"/>
			<path id="XMLID_4845_" class="st330" d="M388,195.1c-4.9-6.5-10.2-15.8-10.6-26.7l5.2-10.9l-11,1.7c0,0-0.3-0.4-0.9-1.1l1.4-2.9
				l-3.2,0.5c-5.4-7.2-16.8-24-15.4-34c0,0,0.9,0,2.6,0.2c0,0,0,0,0,0C372.9,127.3,398.5,143.8,388,195.1z"/>
			<path id="XMLID_4844_" class="st335" d="M360,216.2c0,0-10.4-21.7-2.2-41l9.4-7.6l-10.7-3.1c0,0-1.7-6.7-2.7-14.9
				c-1.2-9.4-1.6-20.9,2.3-26.7c0,0,9.3,4.7,16.9,14.5C384.2,151.8,391.7,177.6,360,216.2z"/>
			<path id="XMLID_4843_" class="st330" d="M372.9,137.3c-3.6,7.4-11,11.8-19.1,12.3c-1.2-9.4-1.6-20.9,2.3-26.7
				C356,122.9,365.3,127.5,372.9,137.3z"/>
			<g id="XMLID_4839_">
				<path id="XMLID_4842_" class="st84" d="M351.6,165.2c-5.8,1.5-11.6-0.8-14.9-5.3c-1-1.3-1.7-2.9-2.1-4.5c-2-7.4,2.5-15.1,9.9-17
					c7.4-2,15.1,2.5,17,9.9c0.4,1.7,0.6,3.4,0.4,5C361.3,158.8,357.3,163.7,351.6,165.2z"/>
				<path id="XMLID_4841_" class="st2" d="M351.6,165.2c-5.8,1.5-11.6-0.8-14.9-5.3c0.6-5.6,4.5-10.5,10.3-12
					c5.8-1.5,11.6,0.8,14.9,5.3C361.3,158.8,357.3,163.7,351.6,165.2z"/>
				<circle id="XMLID_4840_" class="st85" cx="352.1" cy="157.9" r="4.2"/>
			</g>
			<g id="XMLID_4835_">
				<path id="XMLID_4838_" class="st86" d="M310.6,143.9c-0.5-5.9,2.9-11.3,8-13.7c1.5-0.7,3.1-1.1,4.9-1.3
					c7.7-0.6,14.4,5.2,14.9,12.8c0.6,7.7-5.2,14.4-12.8,14.9c-1.7,0.1-3.4-0.1-5-0.5C315.1,154.6,311,149.8,310.6,143.9z"/>
				<path id="XMLID_4837_" class="st87" d="M310.6,143.9c-0.5-5.9,2.9-11.3,8-13.7c5.4,1.6,9.5,6.4,10,12.3c0.5,5.9-2.9,11.3-8,13.7
					C315.1,154.6,311,149.8,310.6,143.9z"/>
				<circle id="XMLID_4836_" class="st88" cx="317.7" cy="145.7" r="4.2"/>
			</g>
			<g id="XMLID_4830_">
				<path id="XMLID_4834_" class="st84" d="M357.9,137.7c-2.6,5.4-8.2,8.3-13.8,7.8c-1.6-0.1-3.3-0.6-4.8-1.3
					c-6.9-3.3-9.8-11.7-6.5-18.6c3.3-6.9,11.7-9.8,18.6-6.5c1.6,0.8,2.9,1.8,4.1,3C359.3,126.1,360.5,132.3,357.9,137.7z"/>
				<path id="XMLID_4833_" class="st2" d="M357.9,137.7c-2.6,5.4-8.2,8.3-13.8,7.8c-3.9-4.1-5-10.3-2.4-15.6
					c2.6-5.4,8.2-8.3,13.8-7.8C359.3,126.1,360.5,132.3,357.9,137.7z"/>
				<circle id="XMLID_4832_" class="st85" cx="352.6" cy="132.5" r="4.2"/>
			</g>
		</g>
		<path id="XMLID_4828_" class="st91" d="M90.6,328.7c0,0,29.2-23,94.1-25.8c0,0,82.3-25,149.9-9.7c0,0,78.2,6.4,94,33.1
			c0,0,87.3,40.4-127.8,46.4c0,0-55.5,36.8-104.4,6.6C185.6,372.7,33.5,350.3,90.6,328.7z"/>
		<path id="XMLID_4827_" class="st246" d="M117.5,328.8c0,0,32.1-25.2,90.4-7.6c4.7,1.4,9,4.2,12.1,8.1c4.1,5.2,12.5,12.5,27.7,13.4
			c0,0,48.3-5.1,56.1,9.7c0,0-15.7,31.8-65.5,18.8c0,0-5.3-17.6-51.1-18.8C187.3,352.4,89.2,340.4,117.5,328.8z"/>
		<path id="XMLID_4826_" class="st246" d="M326.4,303c17.4,1.6,59.8,7.7,83.2,29.4c0,0-8.8,6.2-6.9,15c0.7,3-1.9,5.7-4.9,5.4
			c-18.9-1.9-66.2-9.9-77.3-42.4C319.2,306.6,322.3,302.6,326.4,303z"/>
		<g id="XMLID_4823_">
			<path id="XMLID_4825_" class="st211" d="M104.1,144.5c-11.8-4.8-25.2,0.9-29.9,12.7"/>
			<path id="XMLID_4824_" class="st211" d="M134.1,131.8c-11.8-4.8-25.2,0.9-29.9,12.7"/>
		</g>
		<g id="XMLID_4820_">
			<path id="XMLID_4822_" class="st211" d="M439,199.4c-3.4-9-13.5-13.5-22.5-10.1"/>
			<path id="XMLID_4821_" class="st211" d="M461.5,209.5c-3.4-9-13.5-13.5-22.5-10.1"/>
		</g>
	</g>
</g>
</svg>
